<?xml version="1.0" encoding="UTF-8"?>
<svg width="1253px" height="279px" viewBox="0 0 1253 279" version="1.1" xmlns="http://www.w3.org/2000/svg" xmlns:xlink="http://www.w3.org/1999/xlink">
    <title>Group</title>
    <g id="Page-1" stroke="none" stroke-width="1" fill="none" fill-rule="evenodd">
        <g id="Group">
            <g id="shopping-basket-svgrepo-com">
                <polygon id="Path" points="0 0 279 0 279 279 0 279"></polygon>
                <path d="M139.5,23 C178.104704,23 209.4,54.2458117 209.4,92.7894737 L209.4,104.421053 L256,104.421053 L256,127.684211 L242.40445,127.684211 L233.5854,233.333842 C233.082688,239.360178 228.038778,243.996677 221.982,244 L57.018,244 C50.9612222,243.996677 45.9173117,239.360178 45.4146,233.333842 L36.5839,127.684211 L23,127.684211 L23,104.421053 L69.6,104.421053 L69.6,92.7894737 C69.6,54.2458117 100.895296,23 139.5,23 L139.5,23 Z M219.0229,127.684211 L59.96545,127.684211 L67.736,220.736842 L211.25235,220.736842 L219.0229,127.684211 Z M151.15,150.947368 L151.15,197.473684 L127.85,197.473684 L127.85,150.947368 L151.15,150.947368 Z M104.55,150.947368 L104.55,197.473684 L81.25,197.473684 L81.25,150.947368 L104.55,150.947368 Z M197.75,150.947368 L197.75,197.473684 L174.45,197.473684 L174.45,150.947368 L197.75,150.947368 Z M139.5,46.2631579 C114.669174,46.2631579 94.1997913,65.7026032 92.95825,90.4631579 L92.9,92.7894737 L92.9,104.421053 L186.1,104.421053 L186.1,92.7894737 C186.1,67.9979101 166.629768,47.560894 141.83,46.3213158 L139.5,46.2631579 Z" id="Shape" fill="#FFFFFF" fill-rule="nonzero"></path>
            </g>
            <text id="TechShopper" font-family="Damion" font-size="200" font-weight="normal" fill="#FFFFFF">
                <tspan x="279.927734" y="206">TechShopper</tspan>
            </text>
        </g>
    </g>
</svg>